<svg width="71" height="40" viewBox="0 0 71 40" fill="none" xmlns="http://www.w3.org/2000/svg">
<rect width="71" height="39.1036" fill="#355977"/>
<rect x="5.74112" y="35.9865" width="5.84528" height="1.81853" rx="0.649476" fill="white"/>
<rect x="4.82486" y="1.48871" width="8.57308" height="8.44319" rx="2.33811" transform="rotate(-10 4.82486 1.48871)" fill="white"/>
<rect x="9.10526" y="9.30743" width="2.92264" height="3.31233" transform="rotate(-10 9.10526 9.30743)" fill="white"/>
<rect x="4.63635" y="12.241" width="13.0545" height="16.5616" rx="1.94843" transform="rotate(-10 4.63635 12.241)" fill="white"/>
<rect x="8.64728" y="27.998" width="3.24738" height="7.53392" rx="0.909266" transform="rotate(10 8.64728 27.998)" fill="white"/>
<rect x="15.9771" y="28.037" width="3.24738" height="8.13849" rx="0.844319" transform="rotate(-47.0544 15.9771 28.037)" fill="white"/>
<rect x="16.7565" y="13.924" width="3.24738" height="6.71925" rx="0.844319" transform="rotate(-50 16.7565 13.924)" fill="white"/>
<rect x="4.62698" y="15.3982" width="3.24738" height="6.04012" rx="0.844319" transform="rotate(50 4.62698 15.3982)" fill="white"/>
<circle cx="7.11178" cy="4.32464" r="0.552054" fill="#C5D2E1"/>
<circle cx="11.3984" cy="3.74004" r="0.552054" fill="#C5D2E1"/>
<rect x="20.3936" y="35.975" width="5.84528" height="1.81853" rx="0.649476" transform="rotate(-47 20.3936 35.975)" fill="white"/>
<rect x="29.3761" y="37.2851" width="5.84528" height="1.81853" rx="0.649476" fill="white" fill-opacity="0.6"/>
<rect x="65.1547" y="31.6358" width="5.84528" height="1.81853" rx="0.649476" fill="white" fill-opacity="0.6"/>
<rect x="56.4925" y="36.9084" width="5.84528" height="1.81853" rx="0.649476" fill="white" fill-opacity="0.6"/>
<rect x="41.4279" y="32.389" width="5.84528" height="1.81853" rx="0.649476" fill="white" fill-opacity="0.6"/>
</svg>
